<svg width="36" height="36" id="Capa_1" data-name="Capa 1" xmlns="http://www.w3.org/2000/svg" viewBox="0 0 43.45 49.83"><defs><style>.cls-1{fill:#fbc009;}</style></defs><path class="cls-1" d="M54.51,33.05c0,7.29,0,14.58,0,21.86,0,1.67-.47,2.32-2.21,2.31-12.2,0-24.4,0-36.6,0-2.94,0-4.6-1.83-4.61-5.08,0-7.29,0-14.58,0-21.87,0-5.75,0-11.51,0-17.26,0-3.67,1.83-5.55,5.46-5.56,9.06,0,18.11,0,27.17,0,.83,0,1.62.85,2.49,1A18.37,18.37,0,0,0,50,8.9c5.44.06,4.46-.29,4.5,4.58C54.55,20,54.51,26.52,54.51,33.05ZM43.79,47.55v-38c-.84,0-1.52-.1-2.2-.11H17.44c-3.52,0-4.3.82-4.3,4.37q0,15.87,0,31.74c0,.72.08,1.44.12,2Zm2.38-36.2V46c0,3.54,0,3.55-3.54,3.55q-13.12,0-26.26,0c-2.26,0-3.33,1-3.19,2.93s1.29,2.69,3.26,2.68c11.36,0,22.73,0,34.09,0a15.09,15.09,0,0,0,1.82-.2V11.27H50.16v2.89c0,12.21,0,24.43,0,36.64,0,1.89-.44,2.73-2.57,2.71-9.68-.1-19.36,0-29,0a2.86,2.86,0,0,1-1.14,0,5.77,5.77,0,0,1-1.1-1c.34-.36.62-.9,1-1a5.78,5.78,0,0,1,1.82-.09H45.48c.81,0,1.61-.07,2.55-.12V25.64c0-4.3,0-8.6,0-12.9C48.05,11.55,47.9,10.72,46.17,11.35Z" transform="translate(-11.1 -7.39)"/><path class="cls-1" d="M29,23.08c-2.53,0-5.05,0-7.58,0-1.51,0-2-.58-2-2,.14-7.08-.95-5.8,5.7-5.9,3.75-.06,7.5.05,11.25,0,1.71,0,2.44.38,2.43,2.3,0,5.66,0,5.66-5.67,5.66ZM21.76,21H36.52v-3.7H21.76Z" transform="translate(-11.1 -7.39)"/><path class="cls-1" d="M29.13,28.23c-2.3,0-4.59.06-6.88-.05-.5,0-1-.67-1.44-1,.46-.29.91-.82,1.37-.82q7-.09,14,0c.44,0,.87.57,1.3.88-.49.34-1,.95-1.47,1C33.72,28.29,31.42,28.23,29.13,28.23Z" transform="translate(-11.1 -7.39)"/><path class="cls-1" d="M29.12,32.75c-2.3,0-4.61.06-6.91,0-.49,0-.95-.65-1.43-1,.44-.31.87-.9,1.32-.91q7-.09,14,0c.44,0,.88.59,1.33.91-.49.35-.95,1-1.45,1C33.73,32.81,31.43,32.75,29.12,32.75Z" transform="translate(-11.1 -7.39)"/></svg>