<svg width="36" height="36" id="Capa_1" data-name="Capa 1" xmlns="http://www.w3.org/2000/svg" xmlns:xlink="http://www.w3.org/1999/xlink" viewBox="0 0 26.5 26.49"><defs><style>.cls-1{fill:#fbc009;}.cls-2{fill:none;}.cls-3{clip-path:url(#clip-path);}.cls-4{clip-path:url(#clip-path-2);}.cls-5{fill:url(#Degradado_sin_nombre_236);}.cls-6{clip-path:url(#clip-path-3);}.cls-7{fill:url(#Degradado_sin_nombre_236-2);}.cls-8{clip-path:url(#clip-path-4);}.cls-9{fill:url(#Degradado_sin_nombre_236-3);}.cls-10{clip-path:url(#clip-path-5);}.cls-11{fill:url(#Degradado_sin_nombre_236-4);}.cls-12{clip-path:url(#clip-path-6);}.cls-13{fill:url(#Degradado_sin_nombre_236-5);}.cls-14{clip-path:url(#clip-path-7);}.cls-15{fill:url(#Degradado_sin_nombre_236-6);}.cls-16{clip-path:url(#clip-path-8);}.cls-17{fill:url(#Degradado_sin_nombre_236-7);}.cls-18{clip-path:url(#clip-path-9);}.cls-19{fill:url(#Degradado_sin_nombre_236-8);}.cls-20{clip-path:url(#clip-path-10);}.cls-21{fill:url(#Degradado_sin_nombre_236-9);}.cls-22{clip-path:url(#clip-path-11);}.cls-23{fill:url(#Degradado_sin_nombre_236-10);}</style><clipPath id="clip-path" transform="translate(-3.08 -2.01)"><path class="cls-1" d="M24.56,2l-.21.11A45.27,45.27,0,0,0,17.6,5.5a1.31,1.31,0,0,0-.27.19.39.39,0,0,0-.07.48.36.36,0,0,0,.41.24,1.34,1.34,0,0,0,.38-.14A47.73,47.73,0,0,1,23,3.66c.41-.19.81-.36,1.25-.54,0,.11,0,.18,0,.24q0,8.34,0,16.66a.27.27,0,0,1-.21.3,48.38,48.38,0,0,0-7,3.25c-.09.06-.19.1-.32.17V7.17a2.25,2.25,0,0,0,0-.26.49.49,0,0,0-.31-.47,8.93,8.93,0,0,0-3.28-.84,29.47,29.47,0,0,0-3,0,24.42,24.42,0,0,0-4.88.76c-.41.1-.5.21-.5.63V26.12c0,.53.22.7.73.57a29.63,29.63,0,0,1,6.29-.82,9.6,9.6,0,0,1,3.79.63c.08,0,.21.11.21.18,0,.3,0,.61,0,.93H5.34A1.22,1.22,0,0,1,4.18,27,2.11,2.11,0,0,1,4,26.09Q4,17.7,4,9.33C4,9.22,4,9.12,4,9a.43.43,0,0,0-.42-.38A.43.43,0,0,0,3.09,9a2.35,2.35,0,0,0,0,.26V26.17a3.24,3.24,0,0,0,0,.44A2.21,2.21,0,0,0,5.36,28.5H27.51A2,2,0,0,0,29,27.73a6.54,6.54,0,0,0,.55-1.09V8.89l-.1-.1A.41.41,0,0,0,29,8.67a.42.42,0,0,0-.29.42,2.62,2.62,0,0,1,0,.28V26.08a1.37,1.37,0,0,1-1.53,1.54H16.78c0-.29,0-.55,0-.81a.23.23,0,0,1,.19-.27l1.32-.36a16.33,16.33,0,0,1,6.27,0c.89.13,1.76.37,2.64.56a.46.46,0,0,0,.61-.46.75.75,0,0,0,0-.15V6.87a.43.43,0,0,0-.34-.43,7.62,7.62,0,0,0-.93-.18.42.42,0,0,0-.53.37c0,.24.12.43.4.5l.5.11V25.68l-.2,0A27,27,0,0,0,22.4,25a14.17,14.17,0,0,0-5.85.72.64.64,0,0,1-.41,0A10,10,0,0,0,13.09,25a24.06,24.06,0,0,0-4.94.28c-.8.12-1.59.27-2.4.42a1.5,1.5,0,0,1,0-.2V7.44c0-.16,0-.23.21-.27A30.54,30.54,0,0,1,12,6.44a9.81,9.81,0,0,1,3.56.61.34.34,0,0,1,.28.4q0,8.42,0,16.82a1.64,1.64,0,0,0,0,.38.42.42,0,0,0,.58.29,2.49,2.49,0,0,0,.28-.15A48.39,48.39,0,0,1,24.71,21c.38-.13.46-.25.46-.65V2.62a.65.65,0,0,0-.3-.61Z"/></clipPath><clipPath id="clip-path-2" transform="translate(-3.08 -2.01)"><path class="cls-2" d="M7.93,19.33c-.33.08-.48.3-.43.55s.3.37.63.33c.95-.14,1.9-.29,2.86-.38a8.25,8.25,0,0,1,2.57.19.44.44,0,0,0,.55-.45c0-.25-.15-.4-.47-.45-.48-.07-1-.13-1.44-.17-.3,0-.6,0-.9,0a15.32,15.32,0,0,0-3.37.42"/></clipPath><linearGradient id="Degradado_sin_nombre_236" x1="-693.99" y1="1812.23" x2="-692.99" y2="1812.23" gradientTransform="matrix(6.62, 0, 0, -6.62, 4598.71, 12014.78)" gradientUnits="userSpaceOnUse"><stop offset="0" stop-color="#fcc008"/><stop offset="0.97" stop-color="#df9c1a"/><stop offset="1" stop-color="#df9c1a"/></linearGradient><clipPath id="clip-path-3" transform="translate(-3.08 -2.01)"><path class="cls-2" d="M7.92,16.68c-.31.08-.48.3-.41.56a.45.45,0,0,0,.6.32,13.11,13.11,0,0,1,5.4-.21c.32.06.55-.07.6-.33a.46.46,0,0,0-.45-.55l-2.28-.27a21.18,21.18,0,0,0-3.46.48"/></clipPath><linearGradient id="Degradado_sin_nombre_236-2" x1="-693.97" y1="1812.28" x2="-692.97" y2="1812.28" gradientTransform="matrix(6.62, 0, 0, -6.62, 4599.77, 12015.48)" xlink:href="#Degradado_sin_nombre_236"/><clipPath id="clip-path-4" transform="translate(-3.08 -2.01)"><path class="cls-2" d="M11.1,21.57a14.79,14.79,0,0,0-3,.38l-.15,0c-.32.09-.47.3-.4.56a.46.46,0,0,0,.61.31,13.84,13.84,0,0,1,4.44-.35c.33,0,.66.11,1,.16a.46.46,0,0,0,.56-.34.45.45,0,0,0-.37-.54l-.17,0-2.46-.25a.15.15,0,0,0,0,.07"/></clipPath><linearGradient id="Degradado_sin_nombre_236-3" x1="-693.96" y1="1812.31" x2="-692.96" y2="1812.31" gradientTransform="matrix(6.62, 0, 0, -6.62, 4600.49, 12023.09)" xlink:href="#Degradado_sin_nombre_236"/><clipPath id="clip-path-5" transform="translate(-3.08 -2.01)"><path class="cls-2" d="M9.19,13.79a11.84,11.84,0,0,0-1.32.26.44.44,0,0,0-.37.51.43.43,0,0,0,.53.36l.21,0c.74-.11,1.49-.24,2.24-.33a10.5,10.5,0,0,1,3.06.15.42.42,0,0,0,.57-.33.45.45,0,0,0-.43-.54c-.75-.1-1.5-.18-2.17-.26-.84.07-1.58.13-2.32.22"/></clipPath><linearGradient id="Degradado_sin_nombre_236-4" x1="-693.97" y1="1812.29" x2="-692.97" y2="1812.29" gradientTransform="matrix(6.62, 0, 0, -6.62, 4600.08, 12013.84)" xlink:href="#Degradado_sin_nombre_236"/><clipPath id="clip-path-6" transform="translate(-3.08 -2.01)"><path class="cls-2" d="M9.14,11.15c-.43,0-.85.16-1.27.25a.43.43,0,0,0-.37.46.38.38,0,0,0,.33.4.89.89,0,0,0,.36,0c1-.12,1.92-.32,2.88-.36a17.48,17.48,0,0,1,2.39.18c.35,0,.59-.06.64-.32s-.08-.5-.45-.56c-.73-.1-1.46-.18-2.11-.26-.86.08-1.64.13-2.4.23"/></clipPath><linearGradient id="Degradado_sin_nombre_236-5" x1="-693.98" y1="1812.25" x2="-692.98" y2="1812.25" gradientTransform="matrix(6.62, 0, 0, -6.62, 4599.18, 12008.28)" xlink:href="#Degradado_sin_nombre_236"/><clipPath id="clip-path-7" transform="translate(-3.08 -2.01)"><path class="cls-2" d="M22.43,15.83a1.71,1.71,0,0,0-.3.09L18.39,17.6a.46.46,0,0,0-.16.11.36.36,0,0,0-.09.47,1.72,1.72,0,0,0,.33.33l.44-.17,3.68-1.63.14-.07a.42.42,0,0,0,.19-.53.41.41,0,0,0-.39-.29h-.1"/></clipPath><linearGradient id="Degradado_sin_nombre_236-6" x1="-719.48" y1="1747.69" x2="-718.48" y2="1747.69" gradientTransform="matrix(4.87, 0, 0, -4.87, 3519.72, 8528.52)" xlink:href="#Degradado_sin_nombre_236"/><clipPath id="clip-path-8" transform="translate(-3.08 -2.01)"><path class="cls-2" d="M22.25,13.23c-1.29.56-2.58,1.14-3.86,1.72a.44.44,0,0,0-.25.62.45.45,0,0,0,.64.18L22.66,14c.14-.07.23-.24.29-.31,0-.35-.19-.54-.44-.54a.65.65,0,0,0-.26.06"/></clipPath><linearGradient id="Degradado_sin_nombre_236-7" x1="-719.67" y1="1747.19" x2="-718.67" y2="1747.19" gradientTransform="matrix(4.86, 0, 0, -4.86, 3513.56, 8506.13)" xlink:href="#Degradado_sin_nombre_236"/><clipPath id="clip-path-9" transform="translate(-3.08 -2.01)"><path class="cls-2" d="M22.18,8,18.4,9.65a.57.57,0,0,0-.13.08.44.44,0,0,0,.38.77c.1,0,.19-.08.29-.12L22,9c.22-.1.45-.16.67-.26a.41.41,0,0,0,.24-.49.46.46,0,0,0-.49-.34c-.06,0-.17,0-.27.08"/></clipPath><linearGradient id="Degradado_sin_nombre_236-8" x1="-719.63" y1="1747.3" x2="-718.63" y2="1747.3" gradientTransform="matrix(4.86, 0, 0, -4.86, 3514.86, 8504.99)" xlink:href="#Degradado_sin_nombre_236"/><clipPath id="clip-path-10" transform="translate(-3.08 -2.01)"><path class="cls-2" d="M22.25,10.58,18.39,12.3c-.08,0-.18.1-.2.16a.82.82,0,0,0,0,.46c.05.12.22.2.33.29l.43-.17L22,11.61c.22-.1.45-.17.67-.27a.38.38,0,0,0,.22-.49.42.42,0,0,0-.41-.33h0a.58.58,0,0,0-.26.06"/></clipPath><linearGradient id="Degradado_sin_nombre_236-9" x1="-720.52" y1="1745.05" x2="-719.52" y2="1745.05" gradientTransform="matrix(4.82, 0, 0, -4.82, 3487.3, 8419.38)" xlink:href="#Degradado_sin_nombre_236"/><clipPath id="clip-path-11" transform="translate(-3.08 -2.01)"><path class="cls-2" d="M22.29,18.51c-.36.13-.71.25-1.06.41l-2.8,1.31c-.38.18-.45.55-.18.78a.51.51,0,0,0,.6,0c.82-.39,1.63-.78,2.46-1.15.41-.19.84-.34,1.26-.51.22-.08.38-.21.38-.41a.43.43,0,0,0-.44-.47l-.22,0"/></clipPath><linearGradient id="Degradado_sin_nombre_236-10" x1="-719.65" y1="1747.24" x2="-718.65" y2="1747.24" gradientTransform="matrix(4.86, 0, 0, -4.86, 3514.21, 8513.53)" xlink:href="#Degradado_sin_nombre_236"/></defs><path class="cls-1" d="M24.56,2l-.21.11A45.27,45.27,0,0,0,17.6,5.5a1.31,1.31,0,0,0-.27.19.39.39,0,0,0-.07.48.36.36,0,0,0,.41.24,1.34,1.34,0,0,0,.38-.14A47.73,47.73,0,0,1,23,3.66c.41-.19.81-.36,1.25-.54,0,.11,0,.18,0,.24q0,8.34,0,16.66a.27.27,0,0,1-.21.3,48.38,48.38,0,0,0-7,3.25c-.09.06-.19.1-.32.17V7.17a2.25,2.25,0,0,0,0-.26.49.49,0,0,0-.31-.47,8.93,8.93,0,0,0-3.28-.84,29.47,29.47,0,0,0-3,0,24.42,24.42,0,0,0-4.88.76c-.41.1-.5.21-.5.63V26.12c0,.53.22.7.73.57a29.63,29.63,0,0,1,6.29-.82,9.6,9.6,0,0,1,3.79.63c.08,0,.21.11.21.18,0,.3,0,.61,0,.93H5.34A1.22,1.22,0,0,1,4.18,27,2.11,2.11,0,0,1,4,26.09Q4,17.7,4,9.33C4,9.22,4,9.12,4,9a.43.43,0,0,0-.42-.38A.43.43,0,0,0,3.09,9a2.35,2.35,0,0,0,0,.26V26.17a3.24,3.24,0,0,0,0,.44A2.21,2.21,0,0,0,5.36,28.5H27.51A2,2,0,0,0,29,27.73a6.54,6.54,0,0,0,.55-1.09V8.89l-.1-.1A.41.41,0,0,0,29,8.67a.42.42,0,0,0-.29.42,2.62,2.62,0,0,1,0,.28V26.08a1.37,1.37,0,0,1-1.53,1.54H16.78c0-.29,0-.55,0-.81a.23.23,0,0,1,.19-.27l1.32-.36a16.33,16.33,0,0,1,6.27,0c.89.13,1.76.37,2.64.56a.46.46,0,0,0,.61-.46.75.75,0,0,0,0-.15V6.87a.43.43,0,0,0-.34-.43,7.62,7.62,0,0,0-.93-.18.42.42,0,0,0-.53.37c0,.24.12.43.4.5l.5.11V25.68l-.2,0A27,27,0,0,0,22.4,25a14.17,14.17,0,0,0-5.85.72.64.64,0,0,1-.41,0A10,10,0,0,0,13.09,25a24.06,24.06,0,0,0-4.94.28c-.8.12-1.59.27-2.4.42a1.5,1.5,0,0,1,0-.2V7.44c0-.16,0-.23.21-.27A30.54,30.54,0,0,1,12,6.44a9.81,9.81,0,0,1,3.56.61.34.34,0,0,1,.28.4q0,8.42,0,16.82a1.64,1.64,0,0,0,0,.38.42.42,0,0,0,.58.29,2.49,2.49,0,0,0,.28-.15A48.39,48.39,0,0,1,24.71,21c.38-.13.46-.25.46-.65V2.62a.65.65,0,0,0-.3-.61Z" transform="translate(-3.08 -2.01)"/><g class="cls-3"><rect class="cls-1" width="26.5" height="26.49"/></g><g class="cls-4"><rect class="cls-5" x="4.37" y="16.9" width="6.67" height="1.35"/></g><g class="cls-6"><rect class="cls-7" x="4.37" y="14.19" width="6.71" height="1.42"/></g><g class="cls-8"><rect class="cls-9" x="4.36" y="19.49" width="6.72" height="1.43"/></g><g class="cls-10"><rect class="cls-11" x="4.38" y="11.56" width="6.69" height="1.39"/></g><g class="cls-12"><rect class="cls-13" x="4.41" y="8.91" width="6.68" height="1.37"/></g><g class="cls-14"><rect class="cls-15" x="14.95" y="13.81" width="4.98" height="2.69"/></g><g class="cls-16"><rect class="cls-17" x="14.95" y="11.16" width="4.93" height="2.71"/></g><g class="cls-18"><rect class="cls-19" x="14.96" y="5.86" width="4.95" height="2.68"/></g><g class="cls-20"><rect class="cls-21" x="15.03" y="8.51" width="4.89" height="2.69"/></g><g class="cls-22"><rect class="cls-23" x="14.9" y="16.46" width="4.97" height="2.71"/></g></svg>