<svg width="36" height="36"  id="Capa_1" data-name="Capa 1" xmlns="http://www.w3.org/2000/svg" viewBox="0 0 54.52 54.52"><defs><style>.cls-1{fill:#fbc015;}</style></defs><path class="cls-1" d="M31.81,5.11A27.26,27.26,0,1,1,4.48,32.29,27.23,27.23,0,0,1,31.81,5.11ZM55.6,28.75c0-.47,0-.73-.06-1C54.42,19.06,45,9.67,36.32,8.55c-1.94-.25-3.16.13-3,2.45.05,1-.41,1.92-1.6,1.9-1,0-1.33-.85-1.51-1.75C29.63,8.44,29,8,26.32,8.72c-9.6,2.63-15.71,8.78-18.25,18.4-.5,1.9-.66,3.86,2.38,3.7a1.58,1.58,0,0,1,1.83,1.42c.08,1.19-.83,1.71-1.83,1.66-3-.14-2.78,1.77-2.38,3.71A19.47,19.47,0,0,0,9.15,41c3.28,8.08,9.27,13,17.67,15.09,1.75.43,3.52.46,3.36-2.27-.05-1,.33-2,1.5-2,1.35,0,1.68,1.08,1.63,2.14-.1,2.32,1.32,2.53,3,2.18a25.24,25.24,0,0,0,7.59-2.87A24.34,24.34,0,0,0,55.42,37.47c.34-1.4,1-3.43-1.77-3.5-1.12,0-2.44-.11-2.45-1.6s1.32-1.6,2.44-1.6C55.21,30.77,55.8,30,55.6,28.75Z" transform="translate(-4.48 -5.11)"/><path class="cls-1" d="M30.18,25c0-2.21,0-4.41,0-6.62,0-1,.3-1.93,1.55-1.92s1.52,1,1.54,1.94c.06,3.4.18,6.8,0,10.19A4.19,4.19,0,0,0,35.89,33c2.93,1.53,5.78,3.23,8.63,4.91.87.5,1.95,1.11,1.3,2.36s-1.87.84-2.86.28c-3.69-2.09-7.36-4.22-11-6.31a3.24,3.24,0,0,1-1.77-3.13c0-2,0-4.07,0-6.11Z" transform="translate(-4.48 -5.11)"/></svg>