<svg width="72" height="60" id="Capa_1" data-name="Capa 1" xmlns="http://www.w3.org/2000/svg" xmlns:xlink="http://www.w3.org/1999/xlink" viewBox="0 0 59.95 52.4"><defs><style>.cls-1{fill:none;}.cls-2{clip-path:url(#clip-path);}.cls-3{fill:#fbc009;}.cls-4{clip-path:url(#clip-path-2);}.cls-5{clip-path:url(#clip-path-3);}.cls-6{clip-path:url(#clip-path-4);}.cls-7{clip-path:url(#clip-path-5);}</style><clipPath id="clip-path" transform="translate(-2.76 -6.15)"><path class="cls-1" d="M50.06,51.08c.2-.09.45-.42.62-.16s.57.69.34,1.13c-.5.91-1.06,1.8-1.64,2.79-.16-.62-.29-1.12-.43-1.62a1,1,0,0,0-1.36-.77l-1.6.39.31-.54a3.61,3.61,0,0,1,.58-.95c.34-.28.63.19,1,.27a1.58,1.58,0,0,0,.47.07,4.31,4.31,0,0,0,1.75-.61m4.59,1.45a.23.23,0,0,1,0-.32A5.13,5.13,0,0,0,55.31,51c.12-.32.27-.33.54-.16a2.62,2.62,0,0,0,2.49.53c.18-.07.25.07.33.2l.73,1.27-1.61-.4a1,1,0,0,0-1.36.8c-.14.49-.26,1-.42,1.6-.48-.82-.91-1.57-1.36-2.31M51.94,37.09c.36-.68.69-1.36,1.1-2.16l1.05,2.12c.48,1,1,1.1,1.89.58.54-.29,1.07-.6,1.74-1-.17.88-.31,1.62-.45,2.36a1,1,0,0,0,1,1.36l2.35.26L59,42.16c-.76.69-.75,1.21,0,1.91l1.63,1.51-2.39.29a1,1,0,0,0-1,1.34c.14.74.28,1.48.45,2.36l-2-1.1C54.9,48,54.4,48.17,54,49c-.29.62-.57,1.24-.86,1.85,0,0-.06.05-.16.12q-.4-.9-.81-1.77c-.41-.9-.88-1.06-1.78-.6-.57.29-1.14.57-1.7.88-.32.18-.46.18-.38-.25.11-.63.2-1.26.29-1.89a1,1,0,0,0-1-1.36l-2.39-.37c.61-.57,1.1-1,1.57-1.47.86-.85.86-1.24,0-2.11l-1.15-1.13c-.08-.09-.22-.15-.16-.3s.17-.09.27-.11l1.78-.25c.93-.13,1.25-.54,1.12-1.47-.09-.61-.17-1.23-.28-1.84-.07-.39.07-.39.35-.24.56.29,1.13.6,1.7.88a1.46,1.46,0,0,0,.67.19,1,1,0,0,0,.91-.69M11.45,43.54a3.71,3.71,0,0,0-2.32-2.27.51.51,0,0,1-.4-.57q0-12.63,0-25.27a.49.49,0,0,1,.4-.56,3.73,3.73,0,0,0,2.29-2.22.7.7,0,0,1,.79-.53H40.15c2,0,4,0,6,0a.58.58,0,0,1,.66.44,3.76,3.76,0,0,0,2.36,2.31.47.47,0,0,1,.37.52c0,6.47,0,12.94,0,19.46-1.43-.5-2.39-.25-3,.7a2.76,2.76,0,0,0-.17,2.28c.11.45,0,.58-.43.6a4,4,0,0,0-1.09.2A2.11,2.11,0,0,0,43.8,42c.14.18.33.32.47.5s.7.43.51.72a1.41,1.41,0,0,1-1.21.82q-15.7,0-31.42,0a.61.61,0,0,1-.7-.47M4.74,47.31q0-19.26,0-38.53c0-.49.08-.65.62-.65q23.81,0,47.62,0c.5,0,.59.15.59.62q0,11.85,0,23.71c0,.46-.08.67-.59.6a2,2,0,0,0-1.41.51V14.46c0-1-.18-1.19-1.18-1.35a2,2,0,0,1-1.81-1.92c-.08-.77-.39-1-1.15-1H10.89c-.77,0-1.07.28-1.16,1a2,2,0,0,1-1.92,1.93c-.78.09-1.06.39-1.06,1.15V41.85c0,.77.28,1.08,1,1.16a2.05,2.05,0,0,1,1.93,1.86c.11.9.36,1.12,1.27,1.12q15.84,0,31.68,0a.81.81,0,0,1,.92.56,2.06,2.06,0,0,0,1.78,1.18l1,.16V48h-.62Q25.62,48,5.45,48h0c-.54,0-.7-.11-.7-.69M4.16,6.15c-1.13,0-1.4.27-1.4,1.38V48.61C2.76,49.72,3,50,4.16,50H44.55a1.28,1.28,0,0,1,.71.08c-.73,1.26-1.45,2.5-2.19,3.74a1,1,0,0,0,1.23,1.59c.79-.22,1.59-.41,2.39-.64.37-.1.58-.11.68.38.15.83.4,1.64.63,2.45a1,1,0,0,0,.85.87A1,1,0,0,0,50,57.86c.63-1.09,1.27-2.18,1.91-3.27l.82-1.38c.93,1.58,1.81,3.07,2.67,4.56a1.09,1.09,0,0,0,1.2.68c.53-.09.73-.48.85-1,.2-.8.44-1.59.61-2.4.09-.42.28-.46.63-.36.82.23,1.64.43,2.45.66a1.05,1.05,0,0,0,1.23-.35,1,1,0,0,0,0-1.22c-.5-.84-1-1.68-1.47-2.52a6.29,6.29,0,0,1-1.36-3.54c.35-.05.7-.11,1-.14a2,2,0,0,0,1.87-1.48,2.07,2.07,0,0,0-.67-2.3c-.78-.72-.78-.73,0-1.48a2.07,2.07,0,0,0,.68-2.24,2.1,2.1,0,0,0-1.78-1.53,2,2,0,0,0-.43,0c-.28,0-.56,0-.69-.18s.09-.79.14-1.19A2.14,2.14,0,0,0,56.52,35a3.13,3.13,0,0,1-1,.47v-28c0-1.08-.28-1.36-1.35-1.36Z"/></clipPath><clipPath id="clip-path-2" transform="translate(-2.76 -6.15)"><path class="cls-1" d="M29.54,28.06a6,6,0,1,1,.12,0h-.12m-7.85-6a8,8,0,1,0,7.94-8,7.94,7.94,0,0,0-7.94,8"/></clipPath><clipPath id="clip-path-3" transform="translate(-2.76 -6.15)"><path class="cls-1" d="M39.94,36q-10.89,0-21.78,0c-1.47,0-1.45,0-1.47,1.47,0,.46.15.53.56.53,3.8,0,7.6,0,11.39,0H39.29c1.32,0,1.29,0,1.34-1.35,0-.58-.17-.66-.67-.66Z"/></clipPath><clipPath id="clip-path-4" transform="translate(-2.76 -6.15)"><path class="cls-1" d="M40,40c-7.28,0-14.57,0-21.85,0-1.44,0-1.42,0-1.45,1.43,0,.47.12.58.58.57,3.8,0,7.59,0,11.39,0H39.24c1.37,0,1.35,0,1.39-1.37,0-.52-.13-.63-.63-.63Z"/></clipPath><clipPath id="clip-path-5" transform="translate(-2.76 -6.15)"><path class="cls-1" d="M35.15,32c-2,0-4,0-6,0h-5c-1.47,0-1.45,0-1.47,1.47,0,.46.13.53.55.53H34.11c1.55,0,1.53,0,1.53-1.53,0-.4-.12-.47-.46-.47Z"/></clipPath></defs><g class="cls-2"><rect class="cls-3" width="59.95" height="52.4"/></g><g class="cls-4"><rect class="cls-3" x="18.92" y="7.97" width="15.94" height="15.94"/></g><g class="cls-5"><rect class="cls-3" x="13.93" y="29.87" width="23.96" height="2.01"/></g><g class="cls-6"><rect class="cls-3" x="13.92" y="33.85" width="23.96" height="2.02"/></g><g class="cls-7"><rect class="cls-3" x="19.9" y="25.89" width="13" height="2.01"/></g></svg>