<svg width="60" height="60" id="Capa_1" data-name="Capa 1" xmlns="http://www.w3.org/2000/svg" viewBox="0 0 58 40.14"><defs><style>.cls-1{fill:#fbc009;}.cls-2{fill:none;stroke-width:2px;}.cls-2,.cls-3{stroke:#fbc009;stroke-miterlimit:10;}.cls-3{fill:#fff;}</style></defs><path class="cls-1" d="M6,44a4.8,4.8,0,0,0,.56-3.42c0-8.47,0-16.94,0-25.41,0-3.81.43-4.26,4.06-4.27,14.75,0,29.5,0,44.24,0,2.95,0,4.13,1,4.08,4-.13,8.36-.06,16.73,0,25.1,0,1.34-.48,2.76,1.3,3.81m-7.89-.36c2.11.07,2.64-.73,2.62-2.74-.11-7.53-.13-15.07,0-22.61,0-2.44-.62-3.32-3.18-3.26-6.27.17-12.56.06-18.84.06-6.59,0-13.19,0-19.79,0-1.53,0-2.63.18-2.62,2.15.06,8.17,0,16.34,0,24.5,0,1.08.24,1.83,1.52,1.86m44.76-.23c.76-.23.71-.69.71-1.06,0-9.11,0-18.22,0-27.33,0-2.36-1.35-2.42-3.06-2.42-14.55,0-29.1.05-43.65,0-2.37,0-3.05.82-3,3.12.11,8.48,0,17,.07,25.44,0,.74-.39,1.64.52,2.27,1.1-.8.6-1.93.61-2.87,0-7.64.11-15.28,0-22.92-.05-3,1.12-4,4.09-4q19.62.15,39.25,0c3,0,4.09,1.08,4,4.05-.13,7.64-.06,15.29,0,22.93C56.41,41.28,56.08,42.37,56.85,43.16Z" transform="translate(-4 -10.86)"/><rect class="cls-2" x="1" y="33.14" width="56" height="6" rx="2.64"/><rect class="cls-3" x="22" y="32.14" width="12.5" height="3.5" rx="1.1"/></svg>